<svg xmlns="http://www.w3.org/2000/svg" width="207" height="44" viewBox="0 0 207 44"><defs><linearGradient x1="100%" y1="98.588%" x2="0%" y2="1.412%" id="ajb9jo1lca"><stop stop-color="#067CFB" offset="0%"></stop><stop stop-color="#07F6FE" offset="100%"></stop></linearGradient></defs><g fill="none" fill-rule="evenodd"><path d="M66.726 32.243c-1.888 0-4.06-.542-5.49-2.689-1.029-1.513-1.314-3.858-1.314-7.374 0-3.489.285-5.861 1.314-7.406 1.371-2.059 3.517-2.657 5.49-2.657 2 0 3.631.4 4.887 1.457.4.344.772.658.772 1.058 0 .486-.57 1.116-1.085 1.116-.23 0-.487-.174-.685-.316-1.287-.943-2.147-1.2-3.747-1.2-1.401 0-2.946.257-3.802 1.916-.716 1.37-.8 3.486-.8 6.032 0 2.574.056 4.66.8 6.06.828 1.572 2.258 1.888 3.746 1.888 1.285 0 2.829-.257 4.259-1.488.229-.227.4-.373.657-.373.543 0 1.172.63 1.172 1.117 0 .257-.143.487-.372.744-.63.686-2.285 2.115-5.802 2.115m14.69-4.003c.713 1.374 2.115 1.888 4 1.888 1.917 0 3.347-.514 4.032-1.888.773-1.514.8-3.66.8-6.06 0-2.4-.027-4.547-.8-6.032-.713-1.43-2.115-1.916-4.032-1.916-1.885 0-3.256.486-4 1.916-.744 1.485-.8 3.632-.8 6.032s.028 4.574.8 6.06m9.862 1.345c-1.228 1.83-3.2 2.658-5.862 2.658-2.63 0-4.57-.8-5.83-2.658-1.172-1.718-1.315-4.376-1.315-7.405 0-3.03.143-5.69 1.316-7.406 1.259-1.857 3.2-2.657 5.83-2.657 2.66 0 4.633.828 5.86 2.657 1.173 1.746 1.315 4.376 1.315 7.406 0 3.03-.142 5.66-1.314 7.405m8.283-16.467c0-.803.599-1.001 1.141-1.001.574 0 1.145.198 1.145 1.001v18.124c0 .8-.571 1.001-1.145 1.001-.542 0-1.141-.202-1.141-1.001V13.118zm21.64 14.064c.028.059.112.202.258.202.142 0 .142-.202.142-.317V13.118c0-.803.57-1.001 1.141-1.001.546 0 1.145.198 1.145 1.001V30.5c0 1.086-.487 1.743-1.371 1.743-.716 0-1.203-.17-1.86-1.287l-8.12-13.778c-.028-.06-.115-.202-.257-.202-.142 0-.142.202-.142.313v13.952c0 .8-.571 1.002-1.145 1.002-.542 0-1.141-.202-1.141-1.002V13.86c0-1.086.483-1.743 1.37-1.743.717 0 1.2.17 1.858 1.286l8.122 13.779zm22.834-13.75 4 14.693c.087.257.115.744.286.744.146 0 .173-.428.258-.744l4.031-15.296c.142-.542.487-.712.859-.712.63 0 1.343.313 1.343.97 0 .087-.028.201-.056.317l-4.776 17.524c-.286 1.086-1.001 1.315-1.628 1.315-.63 0-1.315-.229-1.631-1.315l-4.088-15.037c-.055-.202-.087-.46-.23-.46-.142 0-.17.258-.229.46l-4.087 15.037c-.314 1.086-.998 1.315-1.628 1.315-.63 0-1.346-.229-1.631-1.315l-4.773-17.524a1.36 1.36 0 0 1-.059-.317c0-.657.716-.97 1.346-.97.369 0 .713.17.856.712l4.031 15.296c.087.316.115.744.258.744.17 0 .198-.487.285-.744l4.004-14.694c.285-1.085.998-1.314 1.628-1.314.63 0 1.343.229 1.631 1.314m19.175 16.325c0 .199.058.257.257.257h9.092c.686 0 .944.515.944 1.058s-.258 1.057-.944 1.057h-10.577c-.543 0-1.058-.229-1.058-.915V13.146c0-.685.515-.915 1.058-.915h10.292c.686 0 .943.543.943 1.058 0 .542-.257 1.057-.943 1.057h-8.807c-.199 0-.257.056-.257.258v5.889c0 .199.058.257.257.257h7.604c.688 0 .946.543.946 1.058 0 .543-.258 1.057-.946 1.057h-7.604c-.199 0-.257.06-.257.257v6.634zm19.692-6.575c-.199 0-.257.056-.257.258v6.317c0 .198.058.257.257.257h5.976c1.916 0 3.458-1.172 3.458-3.43 0-2.26-1.399-3.402-3.517-3.402h-5.917zm5.517-2.118c2.004 0 3.402-1.172 3.402-3.37 0-2.202-1.541-3.347-3.402-3.347h-5.517c-.199 0-.257.056-.257.258v6.202c0 .202.058.257.257.257h5.517zm3.802.86c0 .086.031.17.146.257 1.398.942 2.313 2.345 2.313 4.404 0 3.687-2.744 5.545-5.802 5.545h-7.461c-.543 0-1.058-.23-1.058-.916V13.146c0-.685.515-.915 1.058-.915h7.002c3.033 0 5.746 1.743 5.746 5.462 0 1.972-.772 3.113-1.798 4-.087.086-.146.17-.146.23zm11.093-9.527c.068.133.152.303.251.509.1.207.198.418.304.632.105.217.202.422.292.614.09.195.158.35.21.462l.251-.508c.094-.187.184-.376.277-.562.093-.19.18-.366.263-.54.08-.17.152-.313.208-.427.109-.23.282-.345.524-.345a.862.862 0 0 1 .46.125l.207 3.87h-.732c-.01-.155-.016-.329-.025-.53l-.027-.621a84.39 84.39 0 0 0-.072-1.28c-.006-.11-.013-.19-.016-.243-.002-.052-.009-.115-.015-.185-.062.133-.143.3-.235.499-.097.201-.193.406-.292.613-.1.211-.193.407-.276.587l-.196.406h-.63a21.903 21.903 0 0 0-.238-.508c-.087-.19-.177-.379-.266-.575a16.895 16.895 0 0 0-.267-.56l-.227-.472c-.028.438-.05.912-.074 1.42-.022.509-.043.99-.071 1.449h-.741a6388.412 6388.412 0 0 0 .189-3.595c.012-.14.064-.239.152-.303a.51.51 0 0 1 .298-.097c.139 0 .25.022.337.06a.618.618 0 0 1 .177.105zm-1.926-.143c.236 0 .354.105.354.323a.617.617 0 0 1-.034.201l-.053.143h-1.439v3.324h-.753V12.92h-1.123c-.236 0-.354-.109-.354-.326a.747.747 0 0 1 .096-.342h3.306z" fill="#FFF"></path><path d="M22.399 0a2.262 2.262 0 0 0-2.262 2.261c0 .777.391 1.461.988 1.868l-3.573 7.724a2.254 2.254 0 0 0-2.37.666L9.094 8.432c.065-.154.1-.324.1-.503 0-.047-.002-.094-.007-.141l9.783-4.061a.295.295 0 0 0-.226-.545L8.99 7.232a1.306 1.306 0 0 0-2.409.697c0 .504.285.94.703 1.159l-4.48 10.905A2.261 2.261 0 0 0 0 22.189a2.26 2.26 0 0 0 2.261 2.26 2.25 2.25 0 0 0 1.52-.589l5.708 4.84a.292.292 0 0 0 .415-.034.293.293 0 0 0-.034-.415l-5.71-4.84a2.258 2.258 0 0 0-.807-3.202L7.863 9.236l.027.001c.33 0 .63-.124.86-.326l6.105 4.098c-.15.302-.236.643-.236 1.004 0 .286.053.56.152.813l-9.239 5.189a.294.294 0 0 0 .144.55c.05 0 .099-.011.145-.037l9.232-5.185c.241.332.571.597.957.757L12.65 28.486a2.26 2.26 0 0 0-2.477 2.25c0 .604.24 1.152.625 1.557l-1.635 2.249a.294.294 0 0 0 .065.411.294.294 0 0 0 .412-.065l1.617-2.224a2.25 2.25 0 0 0 2.435-.05l6.799 7.923a.294.294 0 0 0 .416.03.296.296 0 0 0 .032-.414l-6.805-7.928c.276-.312.464-.702.533-1.132l15.037 1.146c.035.228.126.435.262.608l-6.998 8.672a1.302 1.302 0 0 0-1.445.207L9.193 36.62v-.018c0-.705-.56-1.28-1.258-1.304l-4.004-9.71a.296.296 0 0 0-.546.224l3.96 9.603a1.306 1.306 0 0 0 .542 2.493c.507 0 .946-.289 1.163-.71l12.13 5.023A1.307 1.307 0 0 0 22.399 44c.72 0 1.305-.586 1.305-1.307 0-.304-.103-.583-.278-.805l6.998-8.67a1.307 1.307 0 0 0 1.876-1.175c0-.43-.207-.808-.525-1.047l4.819-10.983c.03.002.061.005.091.005a.919.919 0 0 0 .666-.283l2.92 1.622a2.235 2.235 0 0 0-.157.831c0 .49.155.941.42 1.312l-7.467 6.382a.293.293 0 0 0-.031.415.292.292 0 0 0 .414.033l7.485-6.399c.153.126.321.232.504.315l-4.17 10.022a2.24 2.24 0 0 0-.813-.15c-.596 0-1.14.23-1.542.608l-1.924-1.5a.294.294 0 0 0-.413.051.296.296 0 0 0 .05.414l1.912 1.49a2.268 2.268 0 0 0-.215 1.948l-8.672 3.602a.295.295 0 0 0 .113.567.279.279 0 0 0 .112-.023l8.714-3.62a2.26 2.26 0 0 0 4.126-1.278c0-.75-.365-1.415-.929-1.825l4.218-10.134a2.26 2.26 0 0 0 2.629-2.23 2.261 2.261 0 0 0-2.261-2.261c-.744 0-1.405.36-1.816.916L37.603 19.2a.924.924 0 0 0-.547-.953l-.138-9.05.001-.002 3.953 9.675a.296.296 0 0 0 .274.183.295.295 0 0 0 .273-.406l-3.973-9.72a1.306 1.306 0 0 0-.843-2.305c-.412 0-.78.193-1.02.493L24.634 2.6A2.26 2.26 0 0 0 22.4 0zm-.197 3.205a.964.964 0 0 1-.768-.944.964.964 0 0 1 1.908-.195.964.964 0 0 1-.464 1.03v.001a.957.957 0 0 1-.479.129.997.997 0 0 1-.197-.02zM35.489 17.46a.294.294 0 0 0 .032-.415L24.154 3.686c.126-.157.234-.33.315-.518l10.86 4.48a1.306 1.306 0 0 0 1 1.559l.138 8.99a.924.924 0 0 0-.554.392l-15.476-4.004a.295.295 0 0 0-.147.57l15.476 4.005c.017.24.126.455.29.609l-4.821 10.99a1.311 1.311 0 0 0-.79.098L18.537 15.546a2.255 2.255 0 0 0-.45-3.443l3.565-7.708c.233.082.485.126.747.126.496 0 .953-.159 1.325-.43l11.349 13.334a.296.296 0 0 0 .225.104.298.298 0 0 0 .19-.07zm-19.134-2.637a.967.967 0 0 1-.427-.648.967.967 0 0 1 .024-.429.971.971 0 0 1 .329-.489.956.956 0 0 1 .598-.208.952.952 0 0 1 .653.256.96.96 0 0 1 .184 1.186.964.964 0 0 1-.436.398.953.953 0 0 1-.357.088h-.044a.957.957 0 0 1-.524-.154zm1.73 1.101L29.98 31.22a1.339 1.339 0 0 0-.234.434l-15.063-1.15a2.262 2.262 0 0 0-1.459-1.885l3.353-12.366a2.23 2.23 0 0 0 1.508-.329zm23.442 6.727a.957.957 0 0 1-.118-.462.962.962 0 0 1 .306-.704.965.965 0 0 1 1.623.704.966.966 0 0 1-.8.95.968.968 0 0 1-1.011-.488zm-40.23-.462c0-.533.431-.965.964-.965l.038.001a.964.964 0 0 1 .926.964.967.967 0 0 1-.454.818.965.965 0 0 1-1.474-.818zm10.173 8.548c0-.486.361-.889.83-.954a.962.962 0 0 1 .583.101h-.001c.209.11.373.294.457.518.039.104.06.217.06.335a.972.972 0 0 1-.13.482.971.971 0 0 1-.437.396.967.967 0 0 1-1.362-.878zm24.385 6.396a.96.96 0 0 1-.329-.502.942.942 0 0 1 .048-.641.96.96 0 0 1 .881-.575h.001a.964.964 0 0 1 .797.423.966.966 0 0 1-.797 1.506.958.958 0 0 1-.6-.211z" fill="url(#ajb9jo1lca)"></path></g></svg>